<svg xmlns="http://www.w3.org/2000/svg" width="191.8145mm" height="43.0127mm" viewBox="0 0 543.7261 121.9257"><defs><style>.a{fill:#1d1d1b;}.b{fill:#05f;}</style></defs><path class="a" d="M26.6051,79.9331c.1241.6207.6215,1.9879,1.243,1.9879.7457,0,1.119-1.4914,1.2431-1.8638L41.15,36.5433c1.6163-5.8429,7.0868-6.0912,9.5729-6.0912,2.9835,0,8.0808.6215,9.5729,6.0912L72.4793,80.0572c.125.4966.4974,1.8638,1.119,1.8638s1.1189-1.1189,1.368-1.9879L87.5228,31.1978h13.9236L85.7823,88.8845c-2.1137,7.7067-6.4653,8.95-11.3134,8.95-3.4809,0-9.4488-.6207-11.3134-7.3342L51.718,49.2247c-.1242-.4974-.3733-2.1137-.9948-2.1137s-.8706,1.6163-.9948,2.1137L38.2909,90.5c-.9948,3.3567-3.7292,7.3342-11.3134,7.3342-8.8264,0-10.4427-5.4688-11.3134-8.95L0,31.1978H13.9237Z"/><path class="a" d="M150.1726,31.1978c5.5946,0,10.6919,1.99,13.6754,5.0972,2.7352,2.8594,4.8489,8.2049,4.8489,15.54V86.0243c0,2.362-.2491,6.0912-2.6111,8.4531-2.362,2.3637-5.967,2.612-9.0755,2.612H125.5571c-3.6059,0-8.2057,0-11.9349-3.2327-5.3464-4.6-5.7188-13.0546-5.7188-17.9028,0-5.8429.6215-11.6858,5.5946-16.0373,4.1025-3.6059,8.5782-3.8542,12.0591-3.8542h28.5938v-4.6a9.333,9.333,0,0,0-1.8646-6.2162c-1.99-2.4869-4.8489-2.8594-7.0868-2.8594h-32.448V31.1978ZM129.9078,67.2525c-.9939,0-3.7292.1241-5.3455,2.2362-.4974.6223-1.6163,2.3636-1.6163,7.0876,0,1.9879.2491,5.4705,1.99,7.3343A7.1912,7.1912,0,0,0,129.66,85.9h20.2648a5.3532,5.3532,0,0,0,3.2318-.7465,3.0625,3.0625,0,0,0,.9948-2.7344V67.2525Z"/><path class="a" d="M210.4629,80.0572c.3725.9948,1.119,2.61,1.74,2.61s1.3672-1.6155,1.7405-2.61l18.3993-48.8594h15.0434L222.2737,91.9913c-2.2378,5.5946-6.4652,5.8429-10.07,5.8429-2.6111,0-7.7083.1258-10.1945-5.8429L176.896,31.1978h15.0426Z"/><path class="a" d="M278.7107,97.0894c-6.7135,0-14.67-.6224-20.1406-8.3307-4.3516-6.2153-4.724-15.2909-4.724-23.994,0-12.3082.6215-21.3829,7.8317-27.599s18.4-6.2162,24.6171-6.2162c7.7067,0,15.6633.3724,21.7562,4.2266,7.7083,4.8489,9.3238,13.0538,9.3238,21.3837,0,3.3568-.3724,7.21-3.1085,9.9462-1.9879,1.99-4.4757,2.4861-7.086,2.4861H268.8887a47.8083,47.8083,0,0,0,.8706,9.0756c1.8646,7.0859,7.9566,7.8324,13.303,7.8324h32.1989V97.0894ZM299.1,57.8029c2.8585,0,3.2326-2.1137,3.2326-3.8542a11.17,11.17,0,0,0-4.2274-8.8264c-3.6051-2.7353-8.3291-2.9844-12.4323-2.9844-3.8534,0-9.8221-.1241-13.8,4.3516-2.9835,3.3568-2.8594,6.9618-2.9835,11.3134Z"/><path class="a" d="M330.92,85.9h37.0486a6.0566,6.0566,0,0,0,4.8482-1.8654,5.7809,5.7809,0,0,0,1.243-4.1016,6.1662,6.1662,0,0,0-1.8637-4.9739c-.9948-.869-2.7361-1.74-11.9358-4.2258l-12.6806-3.4809c-6.9618-1.8654-11.81-4.3516-14.4219-7.9566-2.61-3.6067-3.1068-7.9575-3.1068-11.19s.4966-7.5842,3.1068-11.1893c3.855-5.3455,10.1945-5.7187,15.7891-5.7187h37.1728V42.387H351.1843a7.8091,7.8091,0,0,0-5.0964,1.2431c-1.7413,1.3672-1.8655,2.9835-1.8655,4.724,0,1.8654.1242,3.4809,2.1138,5.0972,1.8654,1.4922,6.4652,2.8594,8.2049,3.3568l14.1735,3.9791c7.8325,2.2379,13.1772,3.9775,16.41,7.4584,3.3568,3.6067,3.9792,8.4548,3.9792,12.06,0,7.9566-2.9844,12.06-5.47,14.0478-3.3568,2.4878-7.46,2.7361-10.5685,2.7361H330.92Z"/><path class="b" d="M482.7633,0,471.9508,10.8126,461.1383,0,400.1755,60.9629l60.9628,60.9628,10.8126-10.8126,10.8124,10.8124,60.9628-60.9627ZM459.02,51.7254H438.063V58.289h16.8764v5.3476H438.063V75.5484h-5.2689V46.3771H459.02Zm7.6854,23.823h-5.7437V74.13l10.8146-13.1676L460.9613,47.7951v-1.418h5.7437l8.5175,10.3317L483.74,46.3771h5.7444v1.418L478.6291,60.9628,489.4843,74.13v1.418H483.74l-8.5174-10.3316Zm8.8071,32.0035,46.589-46.589L475.512,14.3737l7.2513-7.2514,53.84,53.8405-53.84,53.84Z"/></svg>